# xmcd
#
# Track frame offsets:
# 150
# 14452
# 31832
# 48975
# 62465
# 79805
# 91830
# 108677
# 120712
# 138020
# 151312
# 180307
# 196352
# 211370
# 222997
#
# Disc length: 3286 seconds
#
# Revision: 0
# Processed by: cddbd v1.4PL0 Copyright (c) Steve Scherf et al.
# Submitted via: Axialis_AX_CDPlayer 2.6
#
DISCID=c30cd40f
DTITLE=Bobby Womack - The best of the early years CD 2
DYEAR=1900
DGENRE=
TTITLE0=Sweet Caroline - Good times never seemed so good
TTITLE1=Harry Hippie
TTITLE2=Across 110th street
TTITLE3=Nobody wants you when you're down and out
TTITLE4=I'm through trying to prove my love to you
TTITLE5=Lookin' for a love
TTITLE6=You're welcome, stop on by
TTITLE7=I don't know
TTITLE8=Check it out
TTITLE9=It's all over now
TTITLE10=Where there's a will, there's a way
TTITLE11=Daylight
TTITLE12=Home is where the heart is
TTITLE13=Behind closed doors
TTITLE14=Standing in the safety zone
EXTD=
EXTT0=
EXTT1=
EXTT2=
EXTT3=
EXTT4=
EXTT5=
EXTT6=
EXTT7=
EXTT8=
EXTT9=
EXTT10=
EXTT11=
EXTT12=
EXTT13=
EXTT14=
PLAYORDER=
